<svg width="220" height="130" viewBox="0 0 220 130" fill="none" xmlns="http://www.w3.org/2000/svg">
<path d="M116.834 10.1231H116.502C113.696 9.38158 111.09 8.0249 108.874 6.15153C108.625 5.91952 108.48 5.59839 108.468 5.25879C108.457 4.91919 108.58 4.58899 108.812 4.34074C109.044 4.09249 109.366 3.94654 109.705 3.93506C110.045 3.92357 110.375 4.04749 110.623 4.2795C112.529 5.87375 114.763 7.02685 117.167 7.65621C117.459 7.74238 117.711 7.93012 117.877 8.1856C118.043 8.44109 118.112 8.74748 118.072 9.04945C118.031 9.35143 117.885 9.62912 117.658 9.83241C117.431 10.0357 117.139 10.1512 116.834 10.1581V10.1231Z" fill="#38BCEA"/>
<path d="M119.878 45.6748H99.5656C96.5503 45.6603 93.6402 44.5647 91.364 42.5871C89.0878 40.6094 87.5965 37.881 87.161 34.8972L85.2014 21.1454C84.7134 17.9637 85.0261 14.7106 86.1112 11.6801C87.1506 8.54206 89.13 5.79968 91.7809 3.82479C94.4318 1.8499 97.626 0.738071 100.93 0.640137C104.083 0.656321 107.148 1.68012 109.678 3.56198C112.206 1.67681 115.273 0.652634 118.426 0.640137C121.754 0.725322 124.974 1.83918 127.643 3.82858C130.313 5.81797 132.3 8.58526 133.333 11.7501C134.418 14.7806 134.731 18.0337 134.243 21.2154L132.283 34.9672C131.832 37.9381 130.334 40.6501 128.06 42.6136C125.785 44.5771 122.883 45.6628 119.878 45.6748ZM100.983 3.19453C98.1988 3.29686 95.5133 4.25095 93.2888 5.92795C91.0642 7.60496 89.4078 9.92414 88.5432 12.5724C87.6142 15.2086 87.3556 18.0345 87.7908 20.7955L89.7329 34.5473C90.0841 36.9218 91.2742 39.092 93.0876 40.6647C94.901 42.2374 97.2177 43.1085 99.6181 43.1203H119.878C122.279 43.1085 124.595 42.2374 126.409 40.6647C128.222 39.092 129.412 36.9218 129.764 34.5473L131.706 20.7955C132.141 18.0345 131.882 15.2086 130.953 12.5724C130.088 9.92142 128.429 7.60029 126.201 5.92304C123.973 4.24579 121.283 3.29334 118.496 3.19453C115.585 3.21237 112.775 4.26687 110.571 6.16886C110.337 6.3563 110.047 6.45847 109.748 6.45847C109.449 6.45847 109.159 6.3563 108.926 6.16886C106.717 4.26297 103.9 3.20822 100.983 3.19453Z" fill="#38BCEA"/>
<path d="M109.748 76.1877C109.461 76.1877 109.182 76.0911 108.957 75.9133C108.732 75.7355 108.573 75.4871 108.506 75.2079C108.432 74.8788 108.489 74.5337 108.665 74.2461C108.842 73.9586 109.123 73.7513 109.451 73.6683L110.588 73.4058L99.5653 72.986C99.2559 72.9746 98.9611 72.8513 98.7358 72.6389C98.5105 72.4265 98.3701 72.1394 98.3406 71.8312C98.3185 71.5251 98.4045 71.2209 98.5835 70.9715C98.7625 70.7222 99.0232 70.5435 99.3204 70.4665L110.588 67.7372L99.5828 67.2823C99.2746 67.2673 98.9818 67.1428 98.7572 66.9311C98.5327 66.7194 98.3911 66.4344 98.3581 66.1275C98.3288 65.82 98.4119 65.5123 98.592 65.2614C98.7722 65.0105 99.0371 64.8334 99.3379 64.7628L110.57 62.1035L99.5653 61.6486C99.2669 61.6244 98.9864 61.4962 98.7729 61.2862C98.5594 61.0763 98.4264 60.798 98.3972 60.5C98.3681 60.2019 98.4445 59.9032 98.6133 59.6558C98.782 59.4084 99.0323 59.2282 99.3204 59.1466L110.57 56.4873L99.5653 56.0324C99.2565 56.0207 98.9624 55.8975 98.7375 55.6855C98.5126 55.4736 98.3721 55.1873 98.3422 54.8797C98.3123 54.5721 98.395 54.2641 98.5749 54.0128C98.7547 53.7615 99.0196 53.5839 99.3204 53.5129L110.553 50.8536L99.5478 50.3987C99.2302 50.4035 98.9225 50.2881 98.6864 50.0757C98.4502 49.8633 98.303 49.5695 98.2742 49.2532C98.2455 48.9368 98.3373 48.6213 98.5313 48.3698C98.7253 48.1183 99.0071 47.9493 99.3204 47.8968L119.581 43.2428C119.747 43.1944 119.922 43.1805 120.094 43.2019C120.267 43.2233 120.433 43.2795 120.583 43.3672C120.732 43.455 120.863 43.5723 120.966 43.7121C121.068 43.8519 121.142 44.0111 121.181 44.1802C121.22 44.3493 121.225 44.5246 121.194 44.6954C121.163 44.8662 121.098 45.029 121.002 45.1738C120.907 45.3186 120.782 45.4423 120.637 45.5375C120.492 45.6326 120.329 45.6972 120.158 45.7273L108.926 48.3866L119.931 48.8416C120.239 48.8487 120.533 48.9683 120.759 49.1778C120.984 49.3874 121.125 49.6723 121.155 49.9788C121.185 50.2863 121.102 50.594 120.921 50.8449C120.741 51.0958 120.476 51.2729 120.176 51.3435L108.943 54.0028L119.948 54.4577C120.256 54.4729 120.548 54.5988 120.77 54.8121C120.992 55.0254 121.13 55.3118 121.157 55.6186C121.185 55.9253 121.101 56.2318 120.92 56.4814C120.74 56.7311 120.476 56.9071 120.176 56.9772L108.943 59.6365L119.948 60.0739C120.255 60.0923 120.546 60.218 120.77 60.4291C120.994 60.6401 121.136 60.9232 121.173 61.2287C121.202 61.5362 121.119 61.8438 120.939 62.0948C120.759 62.3457 120.494 62.5228 120.193 62.5934L108.943 65.2527L119.948 65.7076C120.257 65.7193 120.551 65.8425 120.776 66.0545C121.001 66.2664 121.141 66.5527 121.171 66.8603C121.201 67.1679 121.118 67.4759 120.939 67.7272C120.759 67.9785 120.494 68.1561 120.193 68.2271L108.961 70.869L119.966 71.3238C120.272 71.3392 120.563 71.4645 120.784 71.6765C121.006 71.8885 121.144 72.1732 121.173 72.4786C121.207 72.7843 121.128 73.0919 120.95 73.3433C120.773 73.5947 120.51 73.7725 120.211 73.8432L110.063 76.1527C109.961 76.1827 109.854 76.1945 109.748 76.1877Z" fill="#38BCEA"/>
<path d="M128.364 68.5771C128.158 68.5794 127.955 68.5312 127.772 68.4366C127.589 68.3421 127.432 68.2041 127.314 68.0347C127.129 67.7593 127.059 67.4227 127.117 67.0961C127.176 66.7696 127.36 66.4787 127.629 66.2851L137.042 59.8291C137.181 59.7338 137.337 59.6667 137.502 59.6318C137.667 59.5969 137.837 59.5948 138.003 59.6257C138.169 59.6566 138.327 59.7198 138.468 59.8117C138.609 59.9037 138.731 60.0225 138.827 60.1615C138.922 60.3006 138.989 60.4569 139.024 60.6219C139.059 60.7868 139.061 60.957 139.03 61.1227C138.999 61.2884 138.936 61.4464 138.844 61.5877C138.752 61.729 138.633 61.8508 138.494 61.9461L129.081 68.3846C128.867 68.5204 128.617 68.5876 128.364 68.5771Z" fill="#38BCEA"/>
<path d="M128.469 54.3879C128.198 54.3857 127.934 54.2972 127.717 54.1353C127.499 53.9733 127.339 53.7462 127.259 53.487C127.179 53.2277 127.184 52.9497 127.272 52.6933C127.361 52.4369 127.529 52.2155 127.752 52.0609L137.165 45.6049C137.301 45.491 137.46 45.407 137.632 45.3581C137.803 45.3093 137.982 45.2967 138.158 45.3213C138.335 45.3458 138.504 45.4069 138.655 45.5007C138.806 45.5944 138.936 45.7188 139.037 45.8657C139.137 46.0126 139.206 46.1789 139.238 46.3539C139.27 46.5288 139.266 46.7087 139.225 46.8818C139.184 47.0549 139.107 47.2175 138.999 47.3592C138.891 47.5008 138.755 47.6184 138.599 47.7044L129.204 54.1604C128.989 54.311 128.732 54.3905 128.469 54.3879Z" fill="#38BCEA"/>
<path d="M91.15 68.5771C90.8931 68.5772 90.6425 68.4978 90.4327 68.3496L81.0373 61.8936C80.7613 61.7056 80.5713 61.4157 80.509 61.0876C80.4466 60.7595 80.5171 60.4201 80.7049 60.144C80.8959 59.8717 81.1855 59.6846 81.5122 59.6226C81.839 59.5605 82.177 59.6283 82.4545 59.8116L91.8673 66.2676C92.1361 66.4613 92.3203 66.7507 92.3822 67.0761C92.444 67.4016 92.3787 67.7384 92.1998 68.0172C92.0813 68.1866 91.9244 68.3256 91.742 68.4229C91.5595 68.5202 91.3567 68.573 91.15 68.5771Z" fill="#38BCEA"/>
<path d="M91.0452 54.3879C90.7879 54.3904 90.5366 54.3107 90.3278 54.1604L80.915 47.7044C80.6427 47.5135 80.4556 47.2238 80.3935 46.8971C80.3315 46.5704 80.3993 46.2323 80.5826 45.9548C80.7706 45.6788 81.0605 45.4888 81.3885 45.4264C81.7166 45.3641 82.056 45.4346 82.3322 45.6224L91.745 52.0784C91.968 52.2329 92.136 52.4545 92.2246 52.7109C92.3133 52.9673 92.318 53.2452 92.2381 53.5045C92.1582 53.7637 91.9977 53.9908 91.7801 54.1528C91.5625 54.3148 91.2989 54.4033 91.0276 54.4054L91.0452 54.3879Z" fill="#38BCEA"/>
<path d="M57.7138 99.6677H60.9257V118.152H57.7138V104.987L49.6015 118.152H46.3896V99.6677H49.6015V112.845L57.7138 99.6677ZM72.6308 114.356L76.6933 104.416H80.5527V118.152H77.4677V109.062L73.6845 118.152H71.5898L67.7939 109.011V118.152H64.7089V104.416H68.5937L72.6308 114.356ZM95.6728 118.152H92.5878V106.904H87.2304V118.152H84.1454V104.416H95.6728V118.152ZM110.628 104.416V118.152H107.543V106.904H103.658L103.404 111.69C103.243 113.992 102.799 115.647 102.071 116.654C101.352 117.653 100.247 118.152 98.7577 118.152H97.8056L97.7929 115.588L98.4277 115.524C99.1047 115.431 99.5956 115.021 99.9003 114.293C100.213 113.556 100.412 112.219 100.497 110.281L100.751 104.416H110.628ZM122.117 118.152C121.982 117.89 121.863 117.462 121.762 116.87C120.78 117.894 119.578 118.406 118.156 118.406C116.777 118.406 115.651 118.012 114.779 117.225C113.907 116.438 113.472 115.465 113.472 114.305C113.472 112.841 114.013 111.72 115.097 110.941C116.188 110.154 117.746 109.76 119.768 109.76H121.66V108.859C121.66 108.148 121.461 107.581 121.063 107.158C120.666 106.726 120.06 106.51 119.248 106.51C118.546 106.51 117.97 106.688 117.521 107.044C117.073 107.391 116.849 107.835 116.849 108.377H113.764C113.764 107.623 114.013 106.921 114.513 106.269C115.012 105.609 115.689 105.093 116.544 104.72C117.407 104.348 118.368 104.162 119.426 104.162C121.034 104.162 122.316 104.568 123.272 105.381C124.229 106.185 124.72 107.319 124.745 108.783V114.978C124.745 116.214 124.919 117.2 125.266 117.936V118.152H122.117ZM118.727 115.93C119.337 115.93 119.908 115.782 120.441 115.486C120.983 115.19 121.389 114.792 121.66 114.293V111.703H119.997C118.854 111.703 117.995 111.902 117.42 112.3C116.844 112.697 116.557 113.26 116.557 113.988C116.557 114.58 116.751 115.054 117.141 115.41C117.538 115.757 118.067 115.93 118.727 115.93ZM139.611 118.152H136.526V112.604H131.182V118.152H128.097V104.416H131.182V110.141H136.526V104.416H139.611V118.152ZM153.716 106.866H149.26V118.152H146.175V106.866H141.769V104.416H153.716V106.866ZM159.099 108.783H162.12C163.246 108.783 164.227 108.978 165.065 109.367C165.903 109.756 166.538 110.302 166.97 111.005C167.41 111.707 167.63 112.524 167.63 113.455C167.63 114.868 167.13 116.002 166.132 116.857C165.133 117.712 163.804 118.144 162.145 118.152H156.014V104.416H159.099V108.783ZM173 118.152H169.915V104.416H173V118.152ZM159.099 111.259V115.689H162.107C162.861 115.689 163.453 115.503 163.885 115.131C164.325 114.75 164.545 114.212 164.545 113.518C164.545 112.824 164.329 112.278 163.897 111.881C163.474 111.474 162.899 111.267 162.171 111.259H159.099Z" fill="#454545"/>
</svg>
